999
FreeCAD v0.21 33771 (Git)
  0
SECTION
  2
HEADER
  9
$ACADVER
  1
AC1014
  9
$ACADMAINTVER
 70
     9
  9
$DWGCODEPAGE
  3
ANSI_1252
  9
$TEXTSTYLE
  7
STANDARD
  9
$DIMSTYLE
  2
STANDARD
  9
$DIMTXSTY
  7
STANDARD
  9
$CMLSTYLE
  2
STANDARD
  9
$LUNITS
 70
2
  9
$INSUNITS
 70
4
  9
$PEXTMAX
 10
50
 20
50
 30
50
  9
$PEXTMIN
 10
0
 20
0
 30
0
  9
$HANDSEED
  5
FFFF
  0
ENDSEC
  0
SECTION
  2
CLASSES
  0
CLASS
  1
ACDBDICTIONARYWDFLT
  2
AcDbDictionaryWithDefault
  3
ObjectDBX Classes
 90
        0
280
     0
281
     0
  0
CLASS
  1
XRECORD
  2
AcDbXrecord
  3
ObjectDBX Classes
 90
        0
280
     0
281
     0
  0
CLASS
  1
LWPOLYLINE
  2
AcDbPolyline
  3
ObjectDBX Classes
 90
        0
280
     0
281
     1
  0
ENDSEC
  0
SECTION
  2
TABLES
  0
TABLE
  2
VPORT
  5
20
330
0
100
AcDbSymbolTable
 70
     1
  0
VPORT
  5
21
330
20
100
AcDbSymbolTableRecord
100
AcDbViewportTableRecord
  2
*ACTIVE
 70
     0
  0
ENDTAB
  0
TABLE
  2
LTYPE
  5
22
330
0
100
AcDbSymbolTable
 70
     1
  0
LTYPE
  5
23
330
21
100
AcDbSymbolTableRecord
100
AcDbLinetypeTableRecord
  2
BYBLOCK
 70
     0
  3

 72
    65
 73
     0
 40
0.0
  0
LTYPE
  5
24
330
21
100
AcDbSymbolTableRecord
100
AcDbLinetypeTableRecord
  2
BYLAYER
 70
     0
  3

 72
    65
 73
     0
 40
0.0
  0
LTYPE
  5
25
330
21
100
AcDbSymbolTableRecord
100
AcDbLinetypeTableRecord
  2
CONTINUOUS
 70
     0
  3
Solid line
 72
    65
 73
     0
 40
0.0
  0
ENDTAB
  0
TABLE
  2
LAYER
  5
A49
330
0
100
AcDbSymbolTable
 70
3
  0
LAYER
  5
A4A
330
A49
100
AcDbSymbolTableRecord
100
AcDbLayerTableRecord
  2
0
 70
   0
 62
   7
  6
CONTINUOUS
  0
LAYER
  5
A4B
330
A49
100
AcDbSymbolTableRecord
100
AcDbLayerTableRecord
  2
none
 70
    0
 62
    7
  6
CONTINUOUS
  0
LAYER
  5
A4C
330
A49
100
AcDbSymbolTableRecord
100
AcDbLayerTableRecord
  2
Sketch
 70
    0
 62
    7
  6
CONTINUOUS
  0
ENDTAB
  0
TABLE
  2
STYLE
  5
70
330
0
100
AcDbSymbolTable
 70
     2
  0
STYLE
  5
71
330
70
100
AcDbSymbolTableRecord
100
AcDbTextStyleTableRecord
  2
STANDARD
 70
     0
 40
0.0
 41
1.0
 50
0.0
 71
     0
 42
2.5
  3
arial.ttf
  4

  0
STYLE
  5
72
330
70
100
AcDbSymbolTableRecord
100
AcDbTextStyleTableRecord
  2
ANNOTATIVE
 70
     0
 40
0.0
 41
1.0
 50
0.0
 71
     0
 42
2.5
  3
arial.ttf
  4

  0
ENDTAB
  0
TABLE
  2
VIEW
  5
73
330
0
100
AcDbSymbolTable
 70
     0
  0
ENDTAB
  0
TABLE
  2
UCS
  5
74
330
0
100
AcDbSymbolTable
 70
     0
  0
ENDTAB
  0
TABLE
  2
APPID
  5
75
330
0
100
AcDbSymbolTable
 70
     2
  0
APPID
  5
76
330
75
100
AcDbSymbolTableRecord
100
AcDbRegAppTableRecord
  2
ACAD
 70
     0
  0
APPID
  5
77
330
75
100
AcDbSymbolTableRecord
100
AcDbRegAppTableRecord
  2
ACADANNOTATIVE
 70
     0
  0
ENDTAB
  0
TABLE
  2
DIMSTYLE
  5
78
330
0
100
AcDbSymbolTable
 70
     2
  0
DIMSTYLE
105
79
330
78
100
AcDbSymbolTableRecord
100
AcDbDimStyleTableRecord
  2
STANDARD
 70
     0
  3

  4

  5

  6

  7

 40
0.0
 41
2.5
 42
0.625
 43
3.75
 44
1.25
 45
0.0
 46
0.0
 47
0.0
 48
0.0
140
2.5
141
2.5
142
0.0
143
0.03937007874016
144
1.0
145
0.0
146
1.0
147
0.625
 71
     0
 72
     0
 73
     0
 74
     0
 75
     0
 76
     0
 77
     1
 78
     8
170
     0
171
     3
172
     1
173
     0
174
     0
175
     0
176
     0
177
     0
178
     0
270
     2
271
     2
272
     2
273
     2
274
     3
340
71
275
     0
280
     0
281
     0
282
     0
283
     0
284
     8
285
     0
286
     0
287
     3
288
     0
  0
ENDTAB
  0
TABLE
  2
BLOCK_RECORD
  5
A01
330
0
100
AcDbSymbolTable
  70
5
  0
BLOCK_RECORD
  5
A02
330
A01
100
AcDbSymbolTableRecord
100
AcDbBlockTableRecord
  2
*MODEL_SPACE
  0
BLOCK_RECORD
  5
A03
330
A01
100
AcDbSymbolTableRecord
100
AcDbBlockTableRecord
  2
*PAPER_SPACE
  0
ENDTAB
  0
ENDSEC
  0
SECTION
  2
BLOCKS
  0
BLOCK
  5
A04
330
A02
100
AcDbEntity
  8
0
100
AcDbBlockBegin
  2
*MODEL_SPACE
 70
   0
 10
0
 20
0
 30
0
  3
*MODEL_SPACE
  1
 
  0
ENDBLK
  5
A05
330
A02
100
AcDbEntity
  8
0
100
AcDbBlockEnd
  0
BLOCK
  5
A06
330
A03
100
AcDbEntity
 67
1
  8
0
100
AcDbBlockBegin
  2
*PAPER_SPACE
 70
   0
 10
0
 20
0
 30
0
  3
*PAPER_SPACE
  1
 
  0
ENDBLK
  5
A07
330
A03
100
AcDbEntity
 67
    1
  8
0
100
AcDbBlockEnd
  0
ENDSEC
  0
SECTION
  2
ENTITIES
  0
LINE
  5
A08
330
A02
100
AcDbEntity
  8
Sketch
100
AcDbLine
 10
48.2851
 20
6.20769
 30
0
 11
20.7851
 21
6.20769
 31
0
  0
LINE
  5
A09
330
A02
100
AcDbEntity
  8
Sketch
100
AcDbLine
 10
48.2851
 20
2.20769
 30
0
 11
48.2851
 21
6.20769
 31
0
  0
LINE
  5
A0A
330
A02
100
AcDbEntity
  8
Sketch
100
AcDbLine
 10
42.2851
 20
2.20769
 30
0
 11
48.2851
 21
2.20769
 31
0
  0
LINE
  5
A0B
330
A02
100
AcDbEntity
  8
Sketch
100
AcDbLine
 10
42.2851
 20
2.20769
 30
0
 11
42.2851
 21
2.83769
 31
0
  0
ARC
  5
A0C
330
A02
100
AcDbEntity
  8
Sketch
100
AcDbCircle
 10
41.6601
 20
2.83769
 30
0
 40
0.625
100
AcDbArc
 50
0
 51
180
  0
LINE
  5
A0D
330
A02
100
AcDbEntity
  8
Sketch
100
AcDbLine
 10
41.0351
 20
2.20769
 30
0
 11
41.0351
 21
2.83769
 31
0
  0
LINE
  5
A0E
330
A02
100
AcDbEntity
  8
Sketch
100
AcDbLine
 10
34.5351
 20
2.20769
 30
0
 11
41.0351
 21
2.20769
 31
0
  0
LINE
  5
A0F
330
A02
100
AcDbEntity
  8
Sketch
100
AcDbLine
 10
34.5351
 20
2.20769
 30
0
 11
34.5351
 21
2.83769
 31
0
  0
ARC
  5
A10
330
A02
100
AcDbEntity
  8
Sketch
100
AcDbCircle
 10
33.9101
 20
2.83769
 30
0
 40
0.625
100
AcDbArc
 50
0
 51
180
  0
LINE
  5
A11
330
A02
100
AcDbEntity
  8
Sketch
100
AcDbLine
 10
33.2851
 20
2.20769
 30
0
 11
33.2851
 21
2.83769
 31
0
  0
LINE
  5
A12
330
A02
100
AcDbEntity
  8
Sketch
100
AcDbLine
 10
25.0351
 20
2.20769
 30
0
 11
33.2851
 21
2.20769
 31
0
  0
LINE
  5
A13
330
A02
100
AcDbEntity
  8
Sketch
100
AcDbLine
 10
25.0351
 20
2.85769
 30
0
 11
25.0351
 21
2.20769
 31
0
  0
LINE
  5
A14
330
A02
100
AcDbEntity
  8
Sketch
100
AcDbLine
 10
20.0351
 20
2.85769
 30
0
 11
25.0351
 21
2.85769
 31
0
  0
LINE
  5
A15
330
A02
100
AcDbEntity
  8
Sketch
100
AcDbLine
 10
20.0351
 20
2.45769
 30
0
 11
20.0351
 21
2.85769
 31
0
  0
LINE
  5
A16
330
A02
100
AcDbEntity
  8
Sketch
100
AcDbLine
 10
17.2851
 20
2.45769
 30
0
 11
20.0351
 21
2.45769
 31
0
  0
LINE
  5
A17
330
A02
100
AcDbEntity
  8
Sketch
100
AcDbLine
 10
17.2851
 20
3.95769
 30
0
 11
17.2851
 21
2.45769
 31
0
  0
LINE
  5
A18
330
A02
100
AcDbEntity
  8
Sketch
100
AcDbLine
 10
16.5351
 20
3.95769
 30
0
 11
17.2851
 21
3.95769
 31
0
  0
LINE
  5
A19
330
A02
100
AcDbEntity
  8
Sketch
100
AcDbLine
 10
16.5351
 20
2.45769
 30
0
 11
16.5351
 21
3.95769
 31
0
  0
LINE
  5
A1A
330
A02
100
AcDbEntity
  8
Sketch
100
AcDbLine
 10
16.5351
 20
-2.39231
 30
0
 11
16.5351
 21
2.45769
 31
0
  0
LINE
  5
A1B
330
A02
100
AcDbEntity
  8
Sketch
100
AcDbLine
 10
18.5351
 20
-2.39231
 30
0
 11
16.5351
 21
-2.39231
 31
0
  0
LINE
  5
A1C
330
A02
100
AcDbEntity
  8
Sketch
100
AcDbLine
 10
18.5351
 20
-6.54231
 30
0
 11
18.5351
 21
-2.39231
 31
0
  0
LINE
  5
A1D
330
A02
100
AcDbEntity
  8
Sketch
100
AcDbLine
 10
10.7851
 20
-6.54231
 30
0
 11
18.5351
 21
-6.54231
 31
0
  0
LINE
  5
A1E
330
A02
100
AcDbEntity
  8
Sketch
100
AcDbLine
 10
10.7851
 20
3.95769
 30
0
 11
10.7851
 21
-6.54231
 31
0
  0
LINE
  5
A1F
330
A02
100
AcDbEntity
  8
Sketch
100
AcDbLine
 10
6.58514
 20
3.95769
 30
0
 11
10.7851
 21
3.95769
 31
0
  0
LINE
  5
A20
330
A02
100
AcDbEntity
  8
Sketch
100
AcDbLine
 10
6.58514
 20
2.45769
 30
0
 11
6.58514
 21
3.95769
 31
0
  0
LINE
  5
A21
330
A02
100
AcDbEntity
  8
Sketch
100
AcDbLine
 10
-0.414861
 20
2.45769
 30
0
 11
6.58514
 21
2.45769
 31
0
  0
LINE
  5
A22
330
A02
100
AcDbEntity
  8
Sketch
100
AcDbLine
 10
-0.414861
 20
2.45769
 30
0
 11
-0.414861
 21
3.08769
 31
0
  0
ARC
  5
A23
330
A02
100
AcDbEntity
  8
Sketch
100
AcDbCircle
 10
-1.03986
 20
3.08769
 30
0
 40
0.625
100
AcDbArc
 50
0
 51
180
  0
LINE
  5
A24
330
A02
100
AcDbEntity
  8
Sketch
100
AcDbLine
 10
-1.66486
 20
2.45769
 30
0
 11
-1.66486
 21
3.08769
 31
0
  0
LINE
  5
A25
330
A02
100
AcDbEntity
  8
Sketch
100
AcDbLine
 10
-2.41486
 20
2.45769
 30
0
 11
-1.66486
 21
2.45769
 31
0
  0
LINE
  5
A26
330
A02
100
AcDbEntity
  8
Sketch
100
AcDbLine
 10
-2.41486
 20
3.20769
 30
0
 11
-2.41486
 21
2.45769
 31
0
  0
LINE
  5
A27
330
A02
100
AcDbEntity
  8
Sketch
100
AcDbLine
 10
-7.21486
 20
3.20769
 30
0
 11
-2.41486
 21
3.20769
 31
0
  0
LINE
  5
A28
330
A02
100
AcDbEntity
  8
Sketch
100
AcDbLine
 10
-7.21486
 20
2.20769
 30
0
 11
-7.21486
 21
3.20769
 31
0
  0
LINE
  5
A29
330
A02
100
AcDbEntity
  8
Sketch
100
AcDbLine
 10
-15.2149
 20
2.20769
 30
0
 11
-7.21486
 21
2.20769
 31
0
  0
LINE
  5
A2A
330
A02
100
AcDbEntity
  8
Sketch
100
AcDbLine
 10
-15.2149
 20
2.20769
 30
0
 11
-15.2149
 21
2.83769
 31
0
  0
ARC
  5
A2B
330
A02
100
AcDbEntity
  8
Sketch
100
AcDbCircle
 10
-15.8399
 20
2.83769
 30
0
 40
0.625
100
AcDbArc
 50
0
 51
180
  0
LINE
  5
A2C
330
A02
100
AcDbEntity
  8
Sketch
100
AcDbLine
 10
-16.4649
 20
2.20769
 30
0
 11
-16.4649
 21
2.83769
 31
0
  0
LINE
  5
A2D
330
A02
100
AcDbEntity
  8
Sketch
100
AcDbLine
 10
-23.4149
 20
2.20769
 30
0
 11
-16.4649
 21
2.20769
 31
0
  0
LINE
  5
A2E
330
A02
100
AcDbEntity
  8
Sketch
100
AcDbLine
 10
-23.4149
 20
2.20769
 30
0
 11
-23.4149
 21
2.83769
 31
0
  0
ARC
  5
A2F
330
A02
100
AcDbEntity
  8
Sketch
100
AcDbCircle
 10
-24.0399
 20
2.83769
 30
0
 40
0.625
100
AcDbArc
 50
1.26322e-06
 51
180
  0
LINE
  5
A30
330
A02
100
AcDbEntity
  8
Sketch
100
AcDbLine
 10
-24.6649
 20
2.20769
 30
0
 11
-24.6649
 21
2.83769
 31
0
  0
LINE
  5
A31
330
A02
100
AcDbEntity
  8
Sketch
100
AcDbLine
 10
-24.6649
 20
2.20769
 30
0
 11
-30.9649
 21
2.20769
 31
0
  0
LINE
  5
A32
330
A02
100
AcDbEntity
  8
Sketch
100
AcDbLine
 10
-30.9649
 20
2.20769
 30
0
 11
-30.9649
 21
6.20769
 31
0
  0
LINE
  5
A33
330
A02
100
AcDbEntity
  8
Sketch
100
AcDbLine
 10
-30.9649
 20
6.20769
 30
0
 11
-3.16486
 21
6.20769
 31
0
  0
LINE
  5
A34
330
A02
100
AcDbEntity
  8
Sketch
100
AcDbLine
 10
-3.16486
 20
5.57769
 30
0
 11
-3.16486
 21
6.20769
 31
0
  0
ARC
  5
A35
330
A02
100
AcDbEntity
  8
Sketch
100
AcDbCircle
 10
-2.78986
 20
6.15202
 30
0
 40
0.685917
100
AcDbArc
 50
-123.142
 51
-56.8582
  0
LINE
  5
A36
330
A02
100
AcDbEntity
  8
Sketch
100
AcDbLine
 10
-2.41486
 20
5.57769
 30
0
 11
-2.41486
 21
6.20769
 31
0
  0
LINE
  5
A37
330
A02
100
AcDbEntity
  8
Sketch
100
AcDbLine
 10
-2.41486
 20
6.20769
 30
0
 11
-2.41486
 21
11.2077
 31
0
  0
LINE
  5
A38
330
A02
100
AcDbEntity
  8
Sketch
100
AcDbLine
 10
-2.41486
 20
11.2077
 30
0
 11
20.5851
 21
11.2077
 31
0
  0
LINE
  5
A39
330
A02
100
AcDbEntity
  8
Sketch
100
AcDbLine
 10
20.5851
 20
11.2077
 30
0
 11
20.5851
 21
8.80769
 31
0
  0
LINE
  5
A3A
330
A02
100
AcDbEntity
  8
Sketch
100
AcDbLine
 10
20.5851
 20
8.80769
 30
0
 11
14.1851
 21
8.80769
 31
0
  0
SPLINE
  5
A3B
330
A02
100
AcDbEntity
  8
Sketch
100
AcDbSpline
210
0
220
0
230
1
 70
8
 71
3
 72
8
 73
4
 74
0
 40
0
 40
0
 40
0
 40
0
 40
1
 40
1
 40
1
 40
1
 10
14.1851
 20
8.80769
 30
0
 10
14.1851
 20
9.40769
 30
0
 10
12.9351
 20
9.40769
 30
0
 10
12.9351
 20
8.80769
 30
0
  0
LINE
  5
A3C
330
A02
100
AcDbEntity
  8
Sketch
100
AcDbLine
 10
12.9351
 20
8.80769
 30
0
 11
9.73514
 21
8.80769
 31
0
  0
SPLINE
  5
A3D
330
A02
100
AcDbEntity
  8
Sketch
100
AcDbSpline
210
0
220
0
230
1
 70
8
 71
3
 72
8
 73
4
 74
0
 40
0
 40
0
 40
0
 40
0
 40
1
 40
1
 40
1
 40
1
 10
9.73514
 20
8.80769
 30
0
 10
10.4316
 20
9.42843
 30
0
 10
9.18159
 20
9.42843
 30
0
 10
8.48514
 20
8.8591
 30
0
  0
LINE
  5
A3E
330
A02
100
AcDbEntity
  8
Sketch
100
AcDbLine
 10
8.48514
 20
8.8591
 30
0
 11
5.28514
 21
8.8591
 31
0
  0
SPLINE
  5
A3F
330
A02
100
AcDbEntity
  8
Sketch
100
AcDbSpline
210
0
220
0
230
1
 70
8
 71
3
 72
8
 73
4
 74
0
 40
0
 40
0
 40
0
 40
0
 40
1
 40
1
 40
1
 40
1
 10
5.28514
 20
8.8591
 30
0
 10
6.03386
 20
9.4591
 30
0
 10
4.78386
 20
9.4591
 30
0
 10
4.03514
 20
8.80769
 30
0
  0
LINE
  5
A40
330
A02
100
AcDbEntity
  8
Sketch
100
AcDbLine
 10
0.585139
 20
8.80769
 30
0
 11
4.03514
 21
8.80769
 31
0
  0
LINE
  5
A41
330
A02
100
AcDbEntity
  8
Sketch
100
AcDbLine
 10
0.585139
 20
6.20769
 30
0
 11
0.585139
 21
8.80769
 31
0
  0
LINE
  5
A42
330
A02
100
AcDbEntity
  8
Sketch
100
AcDbLine
 10
0.585139
 20
5.57769
 30
0
 11
0.585139
 21
6.20769
 31
0
  0
ARC
  5
A43
330
A02
100
AcDbEntity
  8
Sketch
100
AcDbCircle
 10
0.960139
 20
6.12314
 30
0
 40
0.661922
100
AcDbArc
 50
-124.509
 51
-55.4913
  0
LINE
  5
A44
330
A02
100
AcDbEntity
  8
Sketch
100
AcDbLine
 10
1.33514
 20
5.57769
 30
0
 11
1.33514
 21
6.20769
 31
0
  0
LINE
  5
A45
330
A02
100
AcDbEntity
  8
Sketch
100
AcDbLine
 10
1.33514
 20
6.20769
 30
0
 11
19.2851
 21
6.20769
 31
0
  0
LINE
  5
A46
330
A02
100
AcDbEntity
  8
Sketch
100
AcDbLine
 10
20.7166
 20
6.20769
 30
0
 11
20.7166
 21
5.45769
 31
0
  0
LINE
  5
A47
330
A02
100
AcDbEntity
  8
Sketch
100
AcDbLine
 10
20.7166
 20
5.45769
 30
0
 11
19.9666
 21
5.45769
 31
0
  0
LINE
  5
A48
330
A02
100
AcDbEntity
  8
Sketch
100
AcDbLine
 10
19.3238
 20
6.17433
 30
0
 11
19.9666
 21
5.45769
 31
0
  0
ENDSEC
  0
SECTION
  2
OBJECTS
  0
DICTIONARY
  5
F000
330
0
100
AcDbDictionary
  3
ACAD_GROUP
350
F001
  0
DICTIONARY
  5
F001
330
F000
100
AcDbDictionary
  0
ENDSEC
  0
EOF